# File created by Blade
# Date/Time:  Thu Sep 25 18:39:44 2014
# Frame Rate: 120.000 fps
#------------------------------------------------------
:FULLY-SPECIFIED
:DEGREES
1631
root -0.744261 33.067531 -3.115396 7.120960 2.765704 -1.896882
Spine -11.813437 -12.097843 6.146959
Head -7.786505 20.993444 4.336833
LeftShoulder 23.716749 14.947381 37.314007
LeftArm 145.156329 -2.899344 -43.067388
LeftForeArm -15.959492 0.000000 114.123896
LeftHand -14.406291 -0.000000 -44.525728
LeftHandThumb1 -26.253704 0.000000 33.147579
RightShoulder 1.981663 19.433582 -19.315889
RightArm 50.691758 -26.350074 88.197866
RightForeArm 8.946015 -0.000000 125.846391
RightHand 2.865664 -0.000000 46.612810
RightHandThumb1 -24.326973 -0.000000 -32.862282
LeftUpLeg -1.852414 7.827808 2.239400
LeftLeg -0.760163 -0.000000 0.000000
LeftFoot -9.232173 1.341339 -9.644727
LeftToeBase 10.061163 -0.000000 -0.000000
RightUpLeg -3.138907 -5.198412 0.854781
RightLeg 2.058406 -0.000000 -0.000000
RightFoot -7.081273 -2.330322 0.859454
RightToeBase -0.504918 -0.000000 0.000000
1632
root -0.744027 33.067239 -3.116215 7.123361 2.749333 -1.904229
Spine -11.791076 -12.104020 6.138066
Head -7.956501 20.972401 4.315157
LeftShoulder 23.721043 14.821327 37.251994
LeftArm 145.052132 -2.797069 -43.043951
LeftForeArm -15.874101 -0.000000 114.110283
LeftHand -14.414305 -0.000000 -44.516878
LeftHandThumb1 -26.253704 0.000000 33.147579
RightShoulder 1.985961 19.507371 -19.297109
RightArm 50.570636 -26.331870 88.257047
RightForeArm 8.945262 0.000000 125.854815
RightHand 3.043257 -0.000000 46.579485
RightHandThumb1 -24.326973 -0.000000 -32.862282
LeftUpLeg -1.856864 7.826976 2.245204
LeftLeg -0.755480 -0.000000 0.000000
LeftFoot -9.225747 1.340468 -9.687633
LeftToeBase 9.963079 -0.000000 -0.000000
RightUpLeg -3.148665 -5.184463 0.860417
RightLeg 2.068513 -0.000000 -0.000000
RightFoot -7.075159 -2.327196 0.844902
RightToeBase -0.502417 -0.000000 0.000000
1633
root -0.743295 33.066514 -3.116183 7.118505 2.733575 -1.903871
Spine -11.754789 -12.126089 6.117583
Head -8.160586 20.973461 4.297546
LeftShoulder 23.699570 14.628939 37.175410
LeftArm 144.908722 -2.646177 -43.014527
LeftForeArm -15.767457 -0.000000 114.093945
LeftHand -14.466702 -0.000000 -44.353581
LeftHandThumb1 -26.253704 0.000000 33.147579
RightShoulder 1.982238 19.595898 -19.277391
RightArm 50.457794 -26.338724 88.300007
RightForeArm 8.963002 -0.000000 125.858741
RightHand 3.074478 -0.000000 46.599442
RightHandThumb1 -24.326973 -0.000000 -32.862282
LeftUpLeg -1.852830 7.809154 2.244132
LeftLeg -0.744593 -0.000000 0.000000
LeftFoot -9.257778 1.376986 -9.668347
LeftToeBase 10.034969 -0.000000 -0.000000
RightUpLeg -3.146781 -5.182793 0.858237
RightLeg 2.071113 -0.000000 -0.000000
RightFoot -7.085150 -2.323962 0.833032
RightToeBase -0.483255 -0.000000 0.000000
1634
root -0.742774 33.065872 -3.116128 7.118137 2.713534 -1.908192
Spine -11.726608 -12.137118 6.099401
Head -8.383801 20.968096 4.285062
LeftShoulder 23.691518 14.482370 37.126205
LeftArm 144.794828 -2.517759 -42.999804
LeftForeArm -15.764855 -0.000000 114.079858
LeftHand -14.394378 -0.000000 -44.483298
LeftHandThumb1 -26.253704 0.000000 33.147579
RightShoulder 1.958664 19.570052 -19.233765
RightArm 50.522191 -26.379193 88.214641
RightForeArm 8.924327 -0.000000 125.842484
RightHand 3.172767 -0.000000 46.359540
RightHandThumb1 -24.326973 -0.000000 -32.862282
LeftUpLeg -1.850332 7.815650 2.244279
LeftLeg -0.740161 -0.000000 0.000000
LeftFoot -9.205789 1.374317 -9.557533
LeftToeBase 9.740635 -0.000000 -0.000000
RightUpLeg -3.149416 -5.165789 0.859567
RightLeg 2.073994 -0.000000 -0.000000
RightFoot -7.100097 -2.314448 0.857828
RightToeBase -0.455381 -0.000000 0.000000
1635
root -0.742786 33.065140 -3.115766 7.115214 2.700132 -1.909634
Spine -11.697600 -12.178132 6.085015
Head -8.601847 20.973780 4.265262
LeftShoulder 23.668778 14.405114 37.075102
LeftArm 144.713255 -2.436789 -42.979629
LeftForeArm -15.746272 -0.000000 114.063505
LeftHand -14.344788 -0.000000 -44.517397
LeftHandThumb1 -26.253704 0.000000 33.147579
RightShoulder 1.944575 19.497411 -19.180927
RightArm 50.664232 -26.436671 88.093114
RightForeArm 8.885918 -0.000000 125.814342
RightHand 3.058318 0.000000 46.378741
RightHandThumb1 -24.326973 -0.000000 -32.862282
LeftUpLeg -1.842937 7.829502 2.246301
LeftLeg -0.748278 -0.000000 0.000000
LeftFoot -9.257829 1.374721 -9.700704
LeftToeBase 9.949821 -0.000000 -0.000000
RightUpLeg -3.145714 -5.159268 0.859150
RightLeg 2.071097 -0.000000 -0.000000
RightFoot -7.090307 -2.309612 0.833868
RightToeBase -0.500046 -0.000000 0.000000
1636
root -0.742618 33.064402 -3.115412 7.114836 2.683197 -1.914522
Spine -11.672363 -12.184239 6.067104
Head -8.830910 20.953862 4.247489
LeftShoulder 23.696276 14.321046 37.015535
LeftArm 144.642186 -2.381064 -42.949311
LeftForeArm -15.698357 -0.000000 114.029926
LeftHand -14.322054 -0.000000 -44.486732
LeftHandThumb1 -26.253704 0.000000 33.147579
RightShoulder 1.932572 19.675675 -19.222021
RightArm 50.344695 -26.400378 88.223373
RightForeArm 8.971507 0.000000 125.827115
RightHand 3.595076 -0.000000 46.201394
RightHandThumb1 -24.326973 -0.000000 -32.862282
LeftUpLeg -1.837334 7.829365 2.250241
LeftLeg -0.752705 -0.000000 0.000000
LeftFoot -9.288341 1.411094 -9.661177
LeftToeBase 10.002614 -0.000000 -0.000000
RightUpLeg -3.144555 -5.151583 0.863330
RightLeg 2.066111 -0.000000 -0.000000
RightFoot -7.086603 -2.312162 0.801463
RightToeBase -0.513836 -0.000000 0.000000
1637
root -0.742394 33.063607 -3.115531 7.116562 2.666273 -1.917725
Spine -11.640367 -12.228609 6.055496
Head -9.091886 20.978278 4.210045
LeftShoulder 23.653318 14.295191 36.964966
LeftArm 144.612378 -2.330166 -42.922468
LeftForeArm -15.646488 0.000000 113.988811
LeftHand -14.290162 -0.000000 -44.469166
LeftHandThumb1 -26.253704 0.000000 33.147579
RightShoulder 1.952083 19.802876 -19.208956
RightArm 50.187444 -26.411083 88.300768
RightForeArm 8.993302 -0.000000 125.840138
RightHand 3.437246 0.000000 46.362321
RightHandThumb1 -24.326973 -0.000000 -32.862282
LeftUpLeg -1.836941 7.831712 2.253400
LeftLeg -0.750216 -0.000000 0.000000
LeftFoot -9.295085 1.402698 -9.682970
LeftToeBase 9.983317 -0.000000 -0.000000
RightUpLeg -3.140562 -5.124228 0.862183
RightLeg 2.052471 -0.000000 -0.000000
RightFoot -7.093979 -2.313285 0.855904
RightToeBase -0.534345 -0.000000 0.000000
1638
root -0.742003 33.062533 -3.116682 7.122561 2.657265 -1.923403
Spine -11.609675 -12.263649 6.049132
Head -9.360486 20.994782 4.154498
LeftShoulder 23.639069 14.282931 36.911866
LeftArm 144.601556 -2.299991 -42.898848
LeftForeArm -15.602870 0.000000 113.948860
LeftHand -14.267252 0.000000 -44.469763
LeftHandThumb1 -26.253704 0.000000 33.147579
RightShoulder 1.942413 19.815157 -19.192049
RightArm 50.189077 -26.444999 88.288531
RightForeArm 8.948534 -0.000000 125.839225
RightHand 3.391725 -0.000000 46.437411
RightHandThumb1 -24.326973 -0.000000 -32.862282
LeftUpLeg -1.843171 7.812436 2.255170
LeftLeg -0.747831 -0.000000 0.000000
LeftFoot -9.265966 1.423165 -9.539368
LeftToeBase 9.792585 -0.000000 -0.000000
RightUpLeg -3.151381 -5.110300 0.867487
RightLeg 2.057258 -0.000000 -0.000000
RightFoot -7.104194 -2.332425 0.814681
RightToeBase -0.521343 -0.000000 0.000000
1639
root -0.742023 33.061765 -3.116605 7.125609 2.653456 -1.929368
Spine -11.576211 -12.294352 6.026201
Head -9.642860 20.974341 4.136851
LeftShoulder 23.625617 14.197326 36.882788
LeftArm 144.544166 -2.211236 -42.884181
LeftForeArm -15.524817 -0.000000 113.911995
LeftHand -14.203539 -0.000000 -44.463369
LeftHandThumb1 -26.253704 0.000000 33.147579
RightShoulder 1.926760 19.757510 -19.126224
RightArm 50.270588 -26.451931 88.280562
RightForeArm 8.949006 -0.000000 125.820791
RightHand 3.369354 -0.000000 46.574756
RightHandThumb1 -24.326973 -0.000000 -32.862282
LeftUpLeg -1.844415 7.821621 2.262241
LeftLeg -0.754182 -0.000000 0.000000
LeftFoot -9.315476 1.415966 -9.681807
LeftToeBase 10.000981 -0.000000 -0.000000
RightUpLeg -3.152837 -5.118525 0.873683
RightLeg 2.053266 -0.000000 -0.000000
RightFoot -7.102123 -2.307498 0.845572
RightToeBase -0.530305 -0.000000 0.000000
1640
root -0.742089 33.061059 -3.117199 7.137484 2.634097 -1.942441
Spine -11.557005 -12.296006 6.023577
Head -9.906742 20.928868 4.078369
LeftShoulder 23.621026 14.125155 36.842903
LeftArm 144.494283 -2.110481 -42.880338
LeftForeArm -15.482321 -0.000000 113.883538
LeftHand -14.101719 -0.000000 -44.550030
LeftHandThumb1 -26.253704 0.000000 33.147579
RightShoulder 1.911806 19.793315 -19.124137
RightArm 50.190230 -26.453187 88.344622
RightForeArm 8.974154 -0.000000 125.833979
RightHand 3.577265 -0.000000 46.700452
RightHandThumb1 -24.326973 -0.000000 -32.862282
LeftUpLeg -1.849815 7.820378 2.272020
LeftLeg -0.766769 -0.000000 0.000000
LeftFoot -9.326961 1.429507 -9.732758
LeftToeBase 10.006894 -0.000000 -0.000000
RightUpLeg -3.168593 -5.103695 0.885107
RightLeg 2.055398 -0.000000 -0.000000
RightFoot -7.114461 -2.294142 0.858867
RightToeBase -0.468423 -0.000000 0.000000
